<?xml version="1.0" standalone="no"?><!DOCTYPE svg PUBLIC "-//W3C//DTD SVG 1.1//EN" "http://www.w3.org/Graphics/SVG/1.1/DTD/svg11.dtd"><svg t="1645621380359" class="icon" viewBox="0 0 1024 1024" version="1.1" xmlns="http://www.w3.org/2000/svg" p-id="1971" xmlns:xlink="http://www.w3.org/1999/xlink" width="16" height="16"><defs><style type="text/css"></style></defs><path d="M512 64C264.58 64 64 264.58 64 512s200.58 448 448 448 448-200.58 448-448S759.42 64 512 64z m295.57 743.57c-38.4 38.4-83.1 68.54-132.88 89.59C623.18 918.95 568.44 930 512 930s-111.18-11.05-162.7-32.84c-49.77-21.05-94.48-51.2-132.88-89.59-38.4-38.4-68.54-83.1-89.59-132.88C105.05 623.18 94 568.44 94 512s11.05-111.18 32.84-162.7c21.05-49.77 51.2-94.48 89.59-132.88 38.4-38.4 83.1-68.54 132.88-89.59C400.82 105.05 455.56 94 512 94s111.18 11.05 162.7 32.84c49.77 21.05 94.48 51.2 132.88 89.59 38.4 38.4 68.54 83.1 89.59 132.88C918.95 400.82 930 455.56 930 512s-11.05 111.18-32.84 162.7c-21.05 49.77-51.19 94.47-89.59 132.87z" fill="#2264F6" p-id="1972"></path><path d="M517.6 192c-176.73 0-320 143.27-320 320s143.27 320 320 320 320-143.27 320-320-143.27-320-320-320z m200.07 424.92l-186.66 85.27a22.204 22.204 0 0 1-18.43 0l-186.66-85.27c-8.01-3.66-8.01-15.05 0-18.71a29.716 29.716 0 0 1 24.72 0l161.94 73.98a22.204 22.204 0 0 0 18.43 0l161.94-73.98a29.716 29.716 0 0 1 24.72 0c8.02 3.67 8.02 15.05 0 18.71z m0-96.51l-186.66 85.27a22.204 22.204 0 0 1-18.43 0l-186.66-85.27c-8.01-3.66-8.01-15.05 0-18.71a29.716 29.716 0 0 1 24.72 0l161.94 73.98a22.204 22.204 0 0 0 18.43 0l161.94-73.98a29.716 29.716 0 0 1 24.72 0c8.02 3.67 8.02 15.05 0 18.71z m0-96.28L531.02 509.4a22.204 22.204 0 0 1-18.43 0l-186.66-85.27c-8.01-3.66-8.01-15.05 0-18.71l186.66-85.27a22.204 22.204 0 0 1 18.43 0l186.66 85.27c8.01 3.67 8.01 15.05-0.01 18.71z" fill="#82AAFC" p-id="1973"></path></svg>