<?xml version="1.0" standalone="no"?><!DOCTYPE svg PUBLIC "-//W3C//DTD SVG 1.1//EN" "http://www.w3.org/Graphics/SVG/1.1/DTD/svg11.dtd"><svg t="1645622712148" class="icon" viewBox="0 0 1024 1024" version="1.1" xmlns="http://www.w3.org/2000/svg" p-id="24570" xmlns:xlink="http://www.w3.org/1999/xlink" width="16" height="16"><defs><style type="text/css"></style></defs><path d="M886.35 344.53L389.49 841.39l-196.03 26.73 26.73-196.03 496.86-496.86c35.15-35.15 92.13-35.15 127.28 0l42.03 42.03c35.14 35.13 35.14 92.12-0.01 127.27z" fill="#99D1FF" p-id="24571"></path><path d="M131.29 888.11c-5.27 0-10.37-2.08-14.14-5.86a19.974 19.974 0 0 1-5.67-16.84l26.73-196.03c0.59-4.33 2.58-8.35 5.67-11.44l496.86-496.86c20.78-20.78 48.4-32.22 77.78-32.22 29.38 0 57.01 11.44 77.78 32.22l42.03 42.03c42.89 42.89 42.89 112.67 0 155.56L341.46 855.53a19.996 19.996 0 0 1-11.44 5.67l-196.03 26.73c-0.9 0.12-1.8 0.18-2.7 0.18z m45.63-206.65l-22.26 163.28 163.28-22.26 492.1-492.09c27.29-27.29 27.29-71.7 0-99l-42.03-42.03c-13.22-13.22-30.8-20.5-49.5-20.5s-36.28 7.28-49.5 20.5l-492.09 492.1z m647.26-336.93h0.01-0.01z" fill="#0072F0" p-id="24572"></path><path d="M353.93 834.76c-3.06 0-6.16-0.7-9.07-2.19-2.86-1.46-70.45-36.11-106.19-71.85-35.74-35.74-70.39-103.33-71.85-106.19-5.02-9.84-1.1-21.89 8.74-26.9 9.84-5.01 21.88-1.1 26.9 8.73 0.33 0.65 33.26 64.84 64.5 96.08 31.31 31.31 95.43 64.17 96.07 64.49 9.84 5.02 13.75 17.06 8.74 26.9-3.53 6.94-10.56 10.93-17.84 10.93zM811.3 377.41c-5.12 0-10.24-1.95-14.14-5.86l-169.31-169.3c-7.81-7.81-7.81-20.47 0-28.28s20.47-7.81 28.28 0l169.31 169.3c7.81 7.81 7.81 20.47 0 28.28-3.9 3.9-9.02 5.86-14.14 5.86zM774.97 895.14H428.54c-11.05 0-20-8.95-20-20s8.95-20 20-20h346.43c11.05 0 20 8.95 20 20s-8.95 20-20 20z" fill="#0072F0" p-id="24573"></path></svg>