<?xml version="1.0" standalone="no"?><!DOCTYPE svg PUBLIC "-//W3C//DTD SVG 1.1//EN" "http://www.w3.org/Graphics/SVG/1.1/DTD/svg11.dtd"><svg t="1645622313414" class="icon" viewBox="0 0 1024 1024" version="1.1" xmlns="http://www.w3.org/2000/svg" p-id="8481" xmlns:xlink="http://www.w3.org/1999/xlink" width="16" height="16"><defs><style type="text/css"></style></defs><path d="M994.742857 295.009524L733.866667 555.885714c-39.009524 39.009524-99.961905 39.009524-138.971429 0l-126.780952-126.780952c-39.009524-39.009524-39.009524-99.961905 0-138.971429L728.990476 29.257143c39.009524-39.009524 99.961905-39.009524 138.971429 0l126.780952 126.780952c39.009524 39.009524 39.009524 99.961905 0 138.971429z" fill="#95CEF9" p-id="8482"></path><path d="M555.885714 733.866667L295.009524 994.742857c-39.009524 39.009524-99.961905 39.009524-138.971429 0l-126.780952-126.780952c-39.009524-39.009524-39.009524-99.961905 0-138.971429l260.87619-260.87619c39.009524-39.009524 99.961905-39.009524 138.971429 0l126.780952 126.780952c36.571429 39.009524 36.571429 102.4 0 138.971429z" fill="#2C9EF4" p-id="8483"></path><path d="M341.333333 682.666667c-14.628571-14.628571-14.628571-36.571429 0-51.2L631.466667 341.333333c14.628571-14.628571 36.571429-14.628571 51.2 0 14.628571 14.628571 14.628571 36.571429 0 51.2L392.533333 682.666667c-14.628571 14.628571-36.571429 14.628571-51.2 0z" fill="#FFFFFF" p-id="8484"></path></svg>