<?xml version="1.0" standalone="no"?><!DOCTYPE svg PUBLIC "-//W3C//DTD SVG 1.1//EN" "http://www.w3.org/Graphics/SVG/1.1/DTD/svg11.dtd"><svg t="1647652021460" class="icon" viewBox="0 0 1024 1024" version="1.1" xmlns="http://www.w3.org/2000/svg" p-id="12343" xmlns:xlink="http://www.w3.org/1999/xlink" width="16" height="16"><defs><style type="text/css">@font-face { font-family: feedback-iconfont; src: url("//at.alicdn.com/t/font_1031158_u69w8yhxdu.woff2?t=1630033759944") format("woff2"), url("//at.alicdn.com/t/font_1031158_u69w8yhxdu.woff?t=1630033759944") format("woff"), url("//at.alicdn.com/t/font_1031158_u69w8yhxdu.ttf?t=1630033759944") format("truetype"); }
</style></defs><path d="M83 215h856v594H83z" fill="#FFFFFF" p-id="12344"></path><path d="M896 216a44 44 0 0 1 44 44v504a44 44 0 0 1-44 44H128a44 44 0 0 1-44-44V260a44 44 0 0 1 44-44h768m0-20H128a64 64 0 0 0-64 64v504a64 64 0 0 0 64 64h768a64 64 0 0 0 64-64V260a64 64 0 0 0-64-64z" fill="#5420F2" p-id="12345"></path><path d="M162 306l92 0 0 92-92 0 0-92Z" fill="#BCBCF7" p-id="12346"></path><path d="M244 316v72h-72v-72h72m0-20h-72a20 20 0 0 0-20 20v72a20 20 0 0 0 20 20h72a20 20 0 0 0 20-20v-72a20 20 0 0 0-20-20z" fill="#5420F2" p-id="12347"></path><path d="M314 306l92 0 0 92-92 0 0-92Z" fill="#BCBCF7" p-id="12348"></path><path d="M396 316v72h-72v-72h72m0-20h-72a20 20 0 0 0-20 20v72a20 20 0 0 0 20 20h72a20 20 0 0 0 20-20v-72a20 20 0 0 0-20-20z" fill="#5420F2" p-id="12349"></path><path d="M466 306l92 0 0 92-92 0 0-92Z" fill="#BCBCF7" p-id="12350"></path><path d="M548 316v72h-72v-72h72m0-20h-72a20 20 0 0 0-20 20v72a20 20 0 0 0 20 20h72a20 20 0 0 0 20-20v-72a20 20 0 0 0-20-20z" fill="#5420F2" p-id="12351"></path><path d="M618 306l92 0 0 92-92 0 0-92Z" fill="#BCBCF7" p-id="12352"></path><path d="M700 316v72h-72v-72h72m0-20h-72a20 20 0 0 0-20 20v72a20 20 0 0 0 20 20h72a20 20 0 0 0 20-20v-72a20 20 0 0 0-20-20z" fill="#5420F2" p-id="12353"></path><path d="M770 306l92 0 0 92-92 0 0-92Z" fill="#BCBCF7" p-id="12354"></path><path d="M852 316v72h-72v-72h72m0-20h-72a20 20 0 0 0-20 20v72a20 20 0 0 0 20 20h72a20 20 0 0 0 20-20v-72a20 20 0 0 0-20-20z" fill="#5420F2" p-id="12355"></path><path d="M162 468l92 0 0 92-92 0 0-92Z" fill="#BCBCF7" p-id="12356"></path><path d="M244 478v72h-72v-72h72m0-20h-72a20 20 0 0 0-20 20v72a20 20 0 0 0 20 20h72a20 20 0 0 0 20-20v-72a20 20 0 0 0-20-20z" fill="#5420F2" p-id="12357"></path><path d="M314 468l92 0 0 92-92 0 0-92Z" fill="#BCBCF7" p-id="12358"></path><path d="M396 478v72h-72v-72h72m0-20h-72a20 20 0 0 0-20 20v72a20 20 0 0 0 20 20h72a20 20 0 0 0 20-20v-72a20 20 0 0 0-20-20z" fill="#5420F2" p-id="12359"></path><path d="M466 468l92 0 0 92-92 0 0-92Z" fill="#BCBCF7" p-id="12360"></path><path d="M548 478v72h-72v-72h72m0-20h-72a20 20 0 0 0-20 20v72a20 20 0 0 0 20 20h72a20 20 0 0 0 20-20v-72a20 20 0 0 0-20-20z" fill="#5420F2" p-id="12361"></path><path d="M618 468l92 0 0 92-92 0 0-92Z" fill="#BCBCF7" p-id="12362"></path><path d="M700 478v72h-72v-72h72m0-20h-72a20 20 0 0 0-20 20v72a20 20 0 0 0 20 20h72a20 20 0 0 0 20-20v-72a20 20 0 0 0-20-20z" fill="#5420F2" p-id="12363"></path><path d="M770 468l92 0 0 92-92 0 0-92Z" fill="#BCBCF7" p-id="12364"></path><path d="M852 478v72h-72v-72h72m0-20h-72a20 20 0 0 0-20 20v72a20 20 0 0 0 20 20h72a20 20 0 0 0 20-20v-72a20 20 0 0 0-20-20z" fill="#5420F2" p-id="12365"></path><path d="M770 630l92 0 0 92-92 0 0-92Z" fill="#BCBCF7" p-id="12366"></path><path d="M852 640v72h-72v-72h72m0-20h-72a20 20 0 0 0-20 20v72a20 20 0 0 0 20 20h72a20 20 0 0 0 20-20v-72a20 20 0 0 0-20-20z" fill="#5420F2" p-id="12367"></path><path d="M162 630l92 0 0 92-92 0 0-92Z" fill="#BCBCF7" p-id="12368"></path><path d="M244 640v72h-72v-72h72m0-20h-72a20 20 0 0 0-20 20v72a20 20 0 0 0 20 20h72a20 20 0 0 0 20-20v-72a20 20 0 0 0-20-20zM700 640v72H324v-72h376m0-20H324a20 20 0 0 0-20 20v72a20 20 0 0 0 20 20h376a20 20 0 0 0 20-20v-72a20 20 0 0 0-20-20zM512 216a10 10 0 0 1-10-10v-43a95.61 95.61 0 0 1 95.5-95.5 10 10 0 0 1 0 20A75.59 75.59 0 0 0 522 163v43a10 10 0 0 1-10 10z" fill="#5420F2" p-id="12369"></path><path d="M316 634h389v85H316z" fill="#5420F2" p-id="12370"></path></svg>