<?xml version="1.0" standalone="no"?><!DOCTYPE svg PUBLIC "-//W3C//DTD SVG 1.1//EN" "http://www.w3.org/Graphics/SVG/1.1/DTD/svg11.dtd"><svg t="1645622403310" class="icon" viewBox="0 0 1024 1024" version="1.1" xmlns="http://www.w3.org/2000/svg" p-id="13347" xmlns:xlink="http://www.w3.org/1999/xlink" width="16" height="16"><defs><style type="text/css"></style></defs><path d="M168.5504 66.1504c-56.32 0-102.4 46.08-102.4 102.4v686.9504c0 56.32 46.08 102.4 102.4 102.4h686.9504c56.32 0 102.4-46.08 102.4-102.4V168.5504c0-56.32-46.08-102.4-102.4-102.4H168.5504z m695.3472 695.3472c0 56.32-46.08 102.4-102.4 102.4H262.5024c-56.32 0-102.4-46.08-102.4-102.4V262.4512c0-56.32 46.08-102.4 102.4-102.4h498.9952c56.32 0 102.4 46.08 102.4 102.4v499.0464z" fill="#00A0E9" p-id="13348"></path><path d="M839.0144 573.3888c-21.7088 0-40.2944 11.776-50.3808 29.2864h-107.1104l-84.6848-169.4208-65.2288 239.2064-43.8784-482.048-57.344-4.864-111.2576 417.1776H136.7552v58.5216H364.032l80.384-301.3632 43.5712 479.5392 57.3952 5.0176 67.584-247.9104 32.3584 64.7168h143.3088c10.0864 17.408 28.7232 29.184 50.3808 29.184a58.5216 58.5216 0 0 0 0-117.0432z" fill="#00A0E9" p-id="13349"></path></svg>