<?xml version="1.0" standalone="no"?><!DOCTYPE svg PUBLIC "-//W3C//DTD SVG 1.1//EN" "http://www.w3.org/Graphics/SVG/1.1/DTD/svg11.dtd"><svg t="1645449194537" class="icon" viewBox="0 0 1024 1024" version="1.1" xmlns="http://www.w3.org/2000/svg" p-id="11335" xmlns:xlink="http://www.w3.org/1999/xlink" width="16" height="16"><defs><style type="text/css"></style></defs><path d="M712.4 115.5c-11 0-20 9-20 20v353.7c0 11-9 20-20 20h-369c-11 0-20-9-20-20V135.5c0-11-9-20-20-20h-15c-11 0-20 9-20 20v409c0 11 9 20 20 20h479.3c11 0 20-9 20-20v-409c0-11-9-20-20-20h-15.3z" fill="#2680F0" p-id="11336"></path><path d="M615 388.4c0 11-9 20-20 20h-14.9c-11 0-20-9-20-20V220.9c0-11 9-20 20-20H595c11 0 20 9 20 20v167.5z" fill="#2680F0" p-id="11337"></path><path d="M118 98.2c-11 0-20 9-20 20v789.3c0 11 9 20 20 20h740.1c11 0 20-9 20-20V118.2c0-11-9-20-20-20H118z m705.1 754.4c0 11-9 20-20 20H173c-11 0-20-9-20-20V173.2c0-11 9-20 20-20h630.2c11 0 20 9 20 20v679.4z" fill="#2680F0" p-id="11338"></path></svg>