<?xml version="1.0" standalone="no"?><!DOCTYPE svg PUBLIC "-//W3C//DTD SVG 1.1//EN" "http://www.w3.org/Graphics/SVG/1.1/DTD/svg11.dtd"><svg t="1647651819698" class="icon" viewBox="0 0 2104 1024" version="1.1" xmlns="http://www.w3.org/2000/svg" p-id="2658" xmlns:xlink="http://www.w3.org/1999/xlink" width="32.875" height="16"><defs><style type="text/css">@font-face { font-family: feedback-iconfont; src: url("//at.alicdn.com/t/font_1031158_u69w8yhxdu.woff2?t=1630033759944") format("woff2"), url("//at.alicdn.com/t/font_1031158_u69w8yhxdu.woff?t=1630033759944") format("woff"), url("//at.alicdn.com/t/font_1031158_u69w8yhxdu.ttf?t=1630033759944") format("truetype"); }
</style></defs><path d="M36.255471 36.255471m373.310497 0l864.692978 0q373.310497 0 373.310498 373.310497l0 0q0 373.310497-373.310498 373.310498l-864.692978 0q-373.310497 0-373.310497-373.310498l0 0q0-373.310497 373.310497-373.310497Z" fill="#FFFFFF" p-id="2659"></path><path d="M1274.258946 819.131936H409.565968a409.565968 409.565968 0 0 1 0-819.131936h864.692978a409.565968 409.565968 0 1 1 0 819.131936zM409.565968 72.510942a337.055027 337.055027 0 0 0 0 674.110053h864.692978a337.055027 337.055027 0 1 0 0-674.110053z" fill="#888888" p-id="2660"></path><path d="M434.461391 409.565968m-245.69124 0a245.69124 245.69124 0 1 0 491.382481 0 245.69124 245.69124 0 1 0-491.382481 0Z" fill="#04BEBD" p-id="2661"></path></svg>