<?xml version="1.0" standalone="no"?><!DOCTYPE svg PUBLIC "-//W3C//DTD SVG 1.1//EN" "http://www.w3.org/Graphics/SVG/1.1/DTD/svg11.dtd"><svg t="1653705194393" class="icon" viewBox="0 0 1024 1024" version="1.1" xmlns="http://www.w3.org/2000/svg" p-id="2939" xmlns:xlink="http://www.w3.org/1999/xlink" width="200" height="200"><defs><style type="text/css">@font-face { font-family: feedback-iconfont; src: url("//at.alicdn.com/t/font_1031158_u69w8yhxdu.woff2?t=1630033759944") format("woff2"), url("//at.alicdn.com/t/font_1031158_u69w8yhxdu.woff?t=1630033759944") format("woff"), url("//at.alicdn.com/t/font_1031158_u69w8yhxdu.ttf?t=1630033759944") format("truetype"); }
</style></defs><path d="M786.7 424l-36.2-28.9-32.5 35.5c-13.8-8.1-28.3-14.4-43.2-18.7l2.1-48.6-45.4-6.5-10.9 47.4c-15.7 0.1-31.3 2.1-46.5 5.9l-21.9-43.2-42.5 17.7 13.7 46.6c-13.4 8-25.9 17.7-37.4 29L446 434l-28 37.1 34.5 33.4c-7.9 14.2-14 29-18.3 44.3l-47.4-2.2-6.3 46.6 46.2 11.2c0.1 16.1 2 32.1 5.8 47.7l-42.1 22.4 17.2 43.6 45.4-14c7.8 13.7 17.2 26.6 28.3 38.3l-25.5 41 36.2 28.9 32.5-35.4c13.8 8.1 28.3 14.4 43.2 18.7l-2.1 48.6 45.4 6.5 10.9-47.4c15.7-0.1 31.3-2.1 46.5-5.9l21.9 43.2 42.5-17.7-13.7-46.6c13.4-8 25.9-17.7 37.4-29l40 26.2 28.2-37.1-34.6-33.4c7.9-14.2 14-29 18.3-44.3l47.4 2.2 6.3-46.6-46.2-11.2c-0.1-16.1-2-32.1-5.8-47.7l42.1-22.4-17.2-43.6-45.4 14c-7.8-13.7-17.2-26.6-28.3-38.3l25.4-41.1z m-74.3 252.5c-39.2 51.6-111.7 60.9-162 20.7S491 582.6 530.2 531c39.2-51.6 111.7-60.9 162-20.7s59.4 114.6 20.2 166.2z" fill="#3FA9F5" p-id="2940"></path><path d="M447.2 184.7l-39.9-23.3-38.7 56.7c-10.5-2.7-21.2-3.9-31.8-3.5l-23.6-63.9-44.2 12.4 11.7 68.2c-9.1 5.6-17.5 12.4-25 20.5L195 223.7l-22.7 40.9 55.3 39.7c-2.7 10.8-3.8 21.8-3.4 32.6L162 361.2l12.2 45.4 66.5-12c5.4 9.3 12.1 18 20 25.6l-27.4 62.2 39.9 23.3 38.7-56.7c10.5 2.7 21.2 3.9 31.8 3.5l23.6 63.9 44.2-12.5-11.7-68.2c9.1-5.6 17.5-12.4 25-20.5l60.7 28.1 22.7-40.9-55.3-39.7c2.7-10.8 3.8-21.8 3.4-32.6l62.3-24.2-12.2-45.4-66.5 12c-5.4-9.3-12.1-18-20-25.6l27.3-62.2zM396 364.9c-16.9 31.6-55.5 43.2-86.3 25.8-30.8-17.3-42.1-57-25.2-88.6 16.9-31.6 55.5-43.2 86.3-25.8 30.8 17.3 42.1 57 25.2 88.6z" fill="#3FA9F5" p-id="2941"></path></svg>